<svg width="186" height="132" viewBox="0 0 186 132" fill="none" xmlns="http://www.w3.org/2000/svg">
<path d="M104.825 0.181166C111.548 1.31224 116.038 7.42946 114.852 13.8443L94.8158 122.252C93.6306 128.667 87.2185 132.95 80.4941 131.819C73.7704 130.688 69.2806 124.571 70.4663 118.155L90.5029 9.74822C91.6881 3.33331 98.1002 -0.949984 104.825 0.181166ZM56.0714 24.3006C60.8993 28.9065 60.8993 36.3743 56.0714 40.9803L29.8461 65.9996L56.0714 91.0192C60.8993 95.6252 60.8993 103.093 56.0714 107.699C51.2435 112.305 43.4158 112.305 38.5879 107.699L3.62092 74.3397C1.30249 72.1279 0 69.1274 0 65.9996C0 62.8717 1.30249 59.872 3.62092 57.6602L38.5879 24.3006C43.4158 19.6947 51.2435 19.6947 56.0714 24.3006ZM146.731 24.3006L181.698 57.6602C184.017 59.872 185.319 62.8717 185.319 65.9996C185.319 69.1274 184.017 72.1279 181.698 74.3397L146.731 107.699C141.903 112.305 134.076 112.305 129.248 107.699C124.42 103.093 124.42 95.6252 129.248 91.0192L155.473 65.9996L129.248 40.9803C124.42 36.3743 124.42 28.9065 129.248 24.3006C134.076 19.6947 141.903 19.6947 146.731 24.3006Z" fill="url(#paint0_linear_56_8)"/>
<defs>
<linearGradient id="paint0_linear_56_8" x1="92.6595" y1="0" x2="92.6595" y2="132" gradientUnits="userSpaceOnUse">
<stop stop-color="#2094FF"/>
<stop offset="1" stop-color="#1474FF"/>
</linearGradient>
</defs>
</svg>
